<svg viewBox="0 0 512 575" fill="none" xmlns="http://www.w3.org/2000/svg">
<path d="M426.13 271.178C435.407 266.893 446 273.669 446 283.888V504H423.5V470.5C423.5 465.529 419.471 461.5 414.5 461.5H381.5C376.529 461.5 372.5 465.529 372.5 470.5V504H354.5V470.5C354.5 465.529 350.471 461.5 345.5 461.5H310.5C305.529 461.5 301.5 465.529 301.5 470.5V504H210V371L426.13 271.178ZM370.82 327C368.274 327 367 328.088 367 330.264V336.59C367 338.766 368.274 339.853 370.82 339.853H389.563V396.238C389.563 398.079 390.413 399 392.11 399H401.89C403.587 399 404.437 398.079 404.437 396.238V339.853H423.18C425.726 339.853 427 338.766 427 336.59V330.264C427 328.088 425.726 327 423.18 327H370.82Z" fill="#5CB9D8"/>
<path d="M285 361C285 373.15 275.15 383 263 383H215C202.85 383 193 373.15 193 361V277H285V361ZM263 224C275.15 224 285 233.85 285 246V255H193V246C193 233.85 202.85 224 215 224H263Z" fill="#5CB9D8"/>
<path d="M68 554V329.353C68 318.988 77.7055 311.358 87.7779 313.806L213.222 344.288C222.188 346.466 228.5 354.496 228.5 363.722V554H179V434C179 427.373 173.627 422 167 422H121C114.373 422 109 427.373 109 434V554H68Z" fill="#51A5C1"/>
<rect y="496" width="285" height="79" rx="39.5" fill="#5CB9D8"/>
<path d="M472.5 496C494.315 496 512 513.685 512 535.5C512 557.315 494.315 575 472.5 575H164V536C164 513.909 181.909 496 204 496H472.5ZM318.5 517C308.283 517 300 525.283 300 535.5C300 545.717 308.283 554 318.5 554C328.717 554 337 545.717 337 535.5C337 525.283 328.717 517 318.5 517ZM368.5 517C358.283 517 350 525.283 350 535.5C350 545.717 358.283 554 368.5 554C378.717 554 387 545.717 387 535.5C387 525.283 378.717 517 368.5 517ZM418.5 517C408.283 517 400 525.283 400 535.5C400 545.717 408.283 554 418.5 554C428.717 554 437 545.717 437 535.5C437 525.283 428.717 517 418.5 517ZM468.5 517C458.283 517 450 525.283 450 535.5C450 545.717 458.283 554 468.5 554C478.717 554 487 545.717 487 535.5C487 525.283 478.717 517 468.5 517Z" fill="#5CB9D8"/>
<rect x="239" y="184" width="27" height="27" fill="#8CC6EA"/>
<rect x="218" y="125" width="48" height="48" fill="#539AC7"/>
<rect x="266" y="105" width="30" height="44" fill="#B4E2FF"/>
<rect x="252" y="84" width="15" height="15" fill="#236995"/>
<rect x="296" y="41" width="50" height="50" fill="#4DB0ED"/>
<rect x="338" y="118" width="21" height="21" fill="#5289AB"/>
<rect x="367" y="66" width="49" height="49" fill="#CCEBFE"/>
<rect x="367" width="32" height="32" fill="#91BEDA"/>
<rect x="436" y="8" width="33" height="33" fill="#8CC6EA"/>
<rect x="301" y="95" width="20" height="20" fill="#58AFE5"/>
</svg>
